<mxfile host="Electron" agent="Mozilla/5.0 (Windows NT 10.0; Win64; x64) AppleWebKit/537.36 (KHTML, like Gecko) draw.io/28.1.2 Chrome/138.0.7204.243 Electron/37.4.0 Safari/537.36" version="28.1.2">
  <diagram name="PÃ¡gina-1" id="VJ8qYw_6KENTnaheWPy_">
    <mxGraphModel dx="1042" dy="660" grid="0" gridSize="10" guides="1" tooltips="1" connect="1" arrows="1" fold="1" page="0" pageScale="1" pageWidth="1169" pageHeight="827" math="0" shadow="0">
      <root>
        <mxCell id="0" />
        <mxCell id="1" parent="0" />
        <mxCell id="2-zdTMDnQHhOAPcytkvD-107" value="&lt;br&gt;&lt;br&gt;&lt;br&gt;&lt;br&gt;&lt;br&gt;&lt;br&gt;&lt;br&gt;&lt;br&gt;&lt;br&gt;&lt;br&gt;&lt;br&gt;&lt;br&gt;&lt;br&gt;" style="points=[[0,0],[0.25,0],[0.5,0],[0.75,0],[1,0],[1,0.25],[1,0.5],[1,0.75],[1,1],[0.75,1],[0.5,1],[0.25,1],[0,1],[0,0.75],[0,0.5],[0,0.25]];outlineConnect=0;whiteSpace=wrap;fontSize=12;fontStyle=0;container=1;pointerEvents=0;collapsible=0;recursiveResize=0;shape=mxgraph.aws4.group;grIcon=mxgraph.aws4.group_aws_cloud;verticalAlign=top;align=left;spacingLeft=30;dashed=1;comic=0;backgroundOutline=0;shadow=1;labelBackgroundColor=none;editable=1;movable=1;resizable=1;rotatable=1;deletable=1;locked=0;connectable=1;cloneable=1;labelBorderColor=none;html=1;" parent="1" vertex="1">
          <mxGeometry x="134" y="90" width="985" height="580" as="geometry" />
        </mxCell>
        <mxCell id="A-gvF0QpMZuj0pTLAi-S-10" value="" style="endArrow=classic;html=1;rounded=0;endSize=8;startSize=8;elbow=vertical;flowAnimation=1;" edge="1" parent="2-zdTMDnQHhOAPcytkvD-107" source="A-gvF0QpMZuj0pTLAi-S-9">
          <mxGeometry width="50" height="50" relative="1" as="geometry">
            <mxPoint x="610" y="381" as="sourcePoint" />
            <mxPoint x="-49" y="334" as="targetPoint" />
            <Array as="points">
              <mxPoint x="631" y="350" />
              <mxPoint x="631" y="338" />
            </Array>
          </mxGeometry>
        </mxCell>
        <mxCell id="2-zdTMDnQHhOAPcytkvD-111" value="" style="points=[[0,0,0],[0.25,0,0],[0.5,0,0],[0.75,0,0],[1,0,0],[0,1,0],[0.25,1,0],[0.5,1,0],[0.75,1,0],[1,1,0],[0,0.25,0],[0,0.5,0],[0,0.75,0],[1,0.25,0],[1,0.5,0],[1,0.75,0]];outlineConnect=0;dashed=1;verticalLabelPosition=bottom;verticalAlign=top;align=center;fontSize=12;fontStyle=0;aspect=fixed;shape=mxgraph.aws4.resourceIcon;resIcon=mxgraph.aws4.transcribe;comic=0;backgroundOutline=0;shadow=1;labelBackgroundColor=none;editable=1;movable=1;resizable=1;rotatable=1;deletable=1;locked=0;connectable=1;cloneable=1;labelBorderColor=none;html=1;fillColor=#d5e8d4;gradientColor=#97d077;strokeColor=#82b366;" parent="1" vertex="1">
          <mxGeometry x="228" y="205" width="50" height="50" as="geometry" />
        </mxCell>
        <mxCell id="2-zdTMDnQHhOAPcytkvD-113" value="" style="points=[[0,0,0],[0.25,0,0],[0.5,0,0],[0.75,0,0],[1,0,0],[0,1,0],[0.25,1,0],[0.5,1,0],[0.75,1,0],[1,1,0],[0,0.25,0],[0,0.5,0],[0,0.75,0],[1,0.25,0],[1,0.5,0],[1,0.75,0]];outlineConnect=0;dashed=1;verticalLabelPosition=bottom;verticalAlign=top;align=center;fontSize=12;fontStyle=0;aspect=fixed;shape=mxgraph.aws4.resourceIcon;resIcon=mxgraph.aws4.desktop_and_app_streaming;comic=0;backgroundOutline=0;shadow=1;labelBackgroundColor=none;editable=1;movable=1;resizable=1;rotatable=1;deletable=1;locked=0;connectable=1;cloneable=1;labelBorderColor=none;html=1;fillColor=#cce5ff;strokeColor=#36393d;" parent="1" vertex="1">
          <mxGeometry x="76" y="473" width="40" height="40" as="geometry" />
        </mxCell>
        <mxCell id="2-zdTMDnQHhOAPcytkvD-115" value="" style="points=[[0,0,0],[0.25,0,0],[0.5,0,0],[0.75,0,0],[1,0,0],[0,1,0],[0.25,1,0],[0.5,1,0],[0.75,1,0],[1,1,0],[0,0.25,0],[0,0.5,0],[0,0.75,0],[1,0.25,0],[1,0.5,0],[1,0.75,0]];outlineConnect=0;dashed=1;verticalLabelPosition=bottom;verticalAlign=top;align=center;fontSize=12;fontStyle=0;aspect=fixed;shape=mxgraph.aws4.resourceIcon;resIcon=mxgraph.aws4.end_user_messaging;comic=0;backgroundOutline=0;shadow=1;labelBackgroundColor=none;editable=1;movable=1;resizable=1;rotatable=1;deletable=1;locked=0;connectable=1;cloneable=1;labelBorderColor=none;html=1;fillColor=#ffcc99;strokeColor=#36393d;" parent="1" vertex="1">
          <mxGeometry x="75" y="206" width="42" height="42" as="geometry" />
        </mxCell>
        <mxCell id="2-zdTMDnQHhOAPcytkvD-117" value="" style="points=[[0,0,0],[0.25,0,0],[0.5,0,0],[0.75,0,0],[1,0,0],[0,1,0],[0.25,1,0],[0.5,1,0],[0.75,1,0],[1,1,0],[0,0.25,0],[0,0.5,0],[0,0.75,0],[1,0.25,0],[1,0.5,0],[1,0.75,0]];outlineConnect=0;dashed=1;verticalLabelPosition=bottom;verticalAlign=top;align=center;fontSize=12;fontStyle=0;aspect=fixed;shape=mxgraph.aws4.resourceIcon;resIcon=mxgraph.aws4.lambda;comic=0;backgroundOutline=0;shadow=1;labelBackgroundColor=none;editable=1;movable=1;resizable=1;rotatable=1;deletable=1;locked=0;connectable=1;cloneable=1;labelBorderColor=none;html=1;fillColor=#fa6800;fontColor=#000000;strokeColor=#C73500;" parent="1" vertex="1">
          <mxGeometry x="480" y="459" width="51" height="51" as="geometry" />
        </mxCell>
        <mxCell id="2-zdTMDnQHhOAPcytkvD-118" value="" style="points=[[0,0,0],[0.25,0,0],[0.5,0,0],[0.75,0,0],[1,0,0],[0,1,0],[0.25,1,0],[0.5,1,0],[0.75,1,0],[1,1,0],[0,0.25,0],[0,0.5,0],[0,0.75,0],[1,0.25,0],[1,0.5,0],[1,0.75,0]];outlineConnect=0;dashed=1;verticalLabelPosition=bottom;verticalAlign=top;align=center;fontSize=12;fontStyle=0;aspect=fixed;shape=mxgraph.aws4.resourceIcon;resIcon=mxgraph.aws4.bedrock;comic=0;backgroundOutline=0;shadow=1;labelBackgroundColor=none;editable=1;movable=1;resizable=1;rotatable=1;deletable=1;locked=0;connectable=1;cloneable=1;labelBorderColor=none;html=1;fillColor=#60a917;fontColor=#ffffff;strokeColor=#2D7600;direction=west;" parent="1" vertex="1">
          <mxGeometry x="353" y="200" width="49" height="49" as="geometry" />
        </mxCell>
        <mxCell id="2-zdTMDnQHhOAPcytkvD-119" value="" style="points=[[0,0,0],[0.25,0,0],[0.5,0,0],[0.75,0,0],[1,0,0],[0,1,0],[0.25,1,0],[0.5,1,0],[0.75,1,0],[1,1,0],[0,0.25,0],[0,0.5,0],[0,0.75,0],[1,0.25,0],[1,0.5,0],[1,0.75,0]];outlineConnect=0;dashed=1;verticalLabelPosition=bottom;verticalAlign=top;align=center;fontSize=12;fontStyle=0;aspect=fixed;shape=mxgraph.aws4.resourceIcon;resIcon=mxgraph.aws4.bedrock;comic=0;backgroundOutline=0;shadow=1;labelBackgroundColor=none;editable=1;movable=1;resizable=1;rotatable=1;deletable=1;locked=0;connectable=1;cloneable=1;labelBorderColor=none;html=1;fillColor=#60a917;fontColor=#ffffff;strokeColor=#2D7600;" parent="1" vertex="1">
          <mxGeometry x="356" y="460" width="50" height="50" as="geometry" />
        </mxCell>
        <mxCell id="2-zdTMDnQHhOAPcytkvD-122" value="" style="points=[[0,0,0],[0.25,0,0],[0.5,0,0],[0.75,0,0],[1,0,0],[0,1,0],[0.25,1,0],[0.5,1,0],[0.75,1,0],[1,1,0],[0,0.25,0],[0,0.5,0],[0,0.75,0],[1,0.25,0],[1,0.5,0],[1,0.75,0]];outlineConnect=0;dashed=1;verticalLabelPosition=bottom;verticalAlign=top;align=center;fontSize=12;fontStyle=0;aspect=fixed;shape=mxgraph.aws4.resourceIcon;resIcon=mxgraph.aws4.eventbridge;comic=0;backgroundOutline=0;shadow=0;labelBackgroundColor=none;editable=1;movable=1;resizable=1;rotatable=1;deletable=1;locked=0;connectable=0;cloneable=0;labelBorderColor=none;html=1;fillColor=#0050ef;allowArrows=0;fontColor=#ffffff;strokeColor=#001DBC;" parent="1" vertex="1">
          <mxGeometry x="602" y="199" width="51" height="51" as="geometry" />
        </mxCell>
        <mxCell id="2-zdTMDnQHhOAPcytkvD-123" value="" style="points=[[0,0,0],[0.25,0,0],[0.5,0,0],[0.75,0,0],[1,0,0],[0,1,0],[0.25,1,0],[0.5,1,0],[0.75,1,0],[1,1,0],[0,0.25,0],[0,0.5,0],[0,0.75,0],[1,0.25,0],[1,0.5,0],[1,0.75,0]];outlineConnect=0;dashed=1;verticalLabelPosition=bottom;verticalAlign=top;align=center;fontSize=12;fontStyle=0;aspect=fixed;shape=mxgraph.aws4.resourceIcon;resIcon=mxgraph.aws4.eventbridge;comic=0;backgroundOutline=0;shadow=1;labelBackgroundColor=none;editable=1;movable=1;resizable=1;rotatable=1;deletable=1;locked=0;connectable=1;cloneable=1;labelBorderColor=none;html=1;fillColor=#0050ef;fontColor=#ffffff;strokeColor=#001DBC;" parent="1" vertex="1">
          <mxGeometry x="605" y="459" width="53" height="53" as="geometry" />
        </mxCell>
        <mxCell id="2-zdTMDnQHhOAPcytkvD-124" value="" style="points=[[0,0,0],[0.25,0,0],[0.5,0,0],[0.75,0,0],[1,0,0],[0,1,0],[0.25,1,0],[0.5,1,0],[0.75,1,0],[1,1,0],[0,0.25,0],[0,0.5,0],[0,0.75,0],[1,0.25,0],[1,0.5,0],[1,0.75,0]];outlineConnect=0;dashed=1;verticalLabelPosition=bottom;verticalAlign=top;align=center;fontSize=12;fontStyle=0;aspect=fixed;shape=mxgraph.aws4.resourceIcon;resIcon=mxgraph.aws4.api_gateway;comic=0;backgroundOutline=0;shadow=1;labelBackgroundColor=none;editable=1;movable=1;resizable=1;rotatable=1;deletable=1;locked=0;connectable=1;cloneable=1;labelBorderColor=none;html=1;fillColor=#ffcd28;gradientColor=#ffa500;strokeColor=#d79b00;" parent="1" vertex="1">
          <mxGeometry x="228" y="464" width="51" height="51" as="geometry" />
        </mxCell>
        <mxCell id="2-zdTMDnQHhOAPcytkvD-125" value="EventBridge" style="text;align=center;verticalAlign=middle;whiteSpace=wrap;rounded=0;comic=0;backgroundOutline=0;dashed=1;shadow=1;labelBackgroundColor=none;editable=1;movable=1;resizable=1;rotatable=1;deletable=1;locked=0;connectable=1;cloneable=1;labelBorderColor=none;html=1;" parent="1" vertex="1">
          <mxGeometry x="601" y="176" width="60" height="30" as="geometry" />
        </mxCell>
        <mxCell id="2-zdTMDnQHhOAPcytkvD-126" value="Bedrock" style="text;align=center;verticalAlign=middle;whiteSpace=wrap;rounded=0;comic=0;backgroundOutline=0;dashed=1;shadow=1;labelBackgroundColor=none;editable=1;movable=1;resizable=1;rotatable=1;deletable=1;locked=0;connectable=1;cloneable=1;labelBorderColor=none;html=1;" parent="1" vertex="1">
          <mxGeometry x="348" y="176" width="60" height="30" as="geometry" />
        </mxCell>
        <mxCell id="2-zdTMDnQHhOAPcytkvD-127" value="Lambda" style="text;align=center;verticalAlign=middle;whiteSpace=wrap;rounded=0;comic=0;backgroundOutline=0;dashed=1;shadow=1;labelBackgroundColor=none;editable=1;movable=1;resizable=1;rotatable=1;deletable=1;locked=0;connectable=1;cloneable=1;labelBorderColor=none;html=1;" parent="1" vertex="1">
          <mxGeometry x="473" y="178" width="60" height="30" as="geometry" />
        </mxCell>
        <mxCell id="2-zdTMDnQHhOAPcytkvD-128" value="Transcribe&lt;br&gt;&lt;br&gt;" style="text;align=center;verticalAlign=middle;whiteSpace=wrap;rounded=0;comic=0;backgroundOutline=0;dashed=1;shadow=1;labelBackgroundColor=none;editable=1;movable=1;resizable=1;rotatable=1;deletable=1;locked=0;connectable=1;cloneable=1;labelBorderColor=none;html=1;" parent="1" vertex="1">
          <mxGeometry x="225" y="188" width="60" height="30" as="geometry" />
        </mxCell>
        <mxCell id="2-zdTMDnQHhOAPcytkvD-129" value="API&lt;br&gt;Gateway&lt;br&gt;&lt;br&gt;" style="text;align=center;verticalAlign=middle;whiteSpace=wrap;rounded=0;comic=0;backgroundOutline=0;dashed=1;shadow=1;labelBackgroundColor=none;editable=1;movable=1;resizable=1;rotatable=1;deletable=1;locked=0;connectable=1;cloneable=1;labelBorderColor=none;html=1;" parent="1" vertex="1">
          <mxGeometry x="225" y="440" width="60" height="30" as="geometry" />
        </mxCell>
        <mxCell id="2-zdTMDnQHhOAPcytkvD-130" value="User&lt;br&gt;Voz" style="text;align=center;verticalAlign=middle;whiteSpace=wrap;rounded=0;comic=0;backgroundOutline=0;dashed=1;shadow=1;labelBackgroundColor=none;editable=1;movable=1;resizable=1;rotatable=1;deletable=1;locked=0;connectable=1;cloneable=1;labelBorderColor=none;html=1;" parent="1" vertex="1">
          <mxGeometry x="69" y="176" width="60" height="30" as="geometry" />
        </mxCell>
        <mxCell id="2-zdTMDnQHhOAPcytkvD-131" value="User text&lt;br&gt;&lt;br&gt;" style="text;align=center;verticalAlign=middle;whiteSpace=wrap;rounded=0;comic=0;backgroundOutline=0;dashed=1;shadow=1;labelBackgroundColor=none;editable=1;movable=1;resizable=1;rotatable=1;deletable=1;locked=0;connectable=1;cloneable=1;labelBorderColor=none;html=1;" parent="1" vertex="1">
          <mxGeometry x="69" y="519" width="60" height="30" as="geometry" />
        </mxCell>
        <mxCell id="2-zdTMDnQHhOAPcytkvD-134" value="" style="edgeStyle=orthogonalEdgeStyle;endArrow=open;elbow=vertical;startArrow=none;endFill=0;rounded=0;comic=0;backgroundOutline=0;dashed=1;shadow=1;labelBackgroundColor=none;flowAnimation=1;editable=1;movable=1;resizable=1;rotatable=1;deletable=1;locked=0;connectable=1;cloneable=1;labelBorderColor=none;html=1;fontColor=default;" parent="1" edge="1">
          <mxGeometry width="100" relative="1" as="geometry">
            <mxPoint x="412" y="485" as="sourcePoint" />
            <mxPoint x="472" y="485" as="targetPoint" />
          </mxGeometry>
        </mxCell>
        <mxCell id="2-zdTMDnQHhOAPcytkvD-135" value="" style="edgeStyle=orthogonalEdgeStyle;endArrow=open;elbow=vertical;startArrow=none;endFill=0;rounded=0;comic=0;backgroundOutline=0;dashed=1;shadow=1;labelBackgroundColor=none;flowAnimation=1;editable=1;movable=1;resizable=1;rotatable=1;deletable=1;locked=0;connectable=1;cloneable=1;labelBorderColor=none;html=1;fontColor=default;" parent="1" edge="1">
          <mxGeometry width="100" relative="1" as="geometry">
            <mxPoint x="410" y="227" as="sourcePoint" />
            <mxPoint x="470" y="227" as="targetPoint" />
            <Array as="points">
              <mxPoint x="440" y="227" />
              <mxPoint x="440" y="227" />
            </Array>
          </mxGeometry>
        </mxCell>
        <mxCell id="2-zdTMDnQHhOAPcytkvD-136" value="" style="edgeStyle=orthogonalEdgeStyle;endArrow=open;elbow=vertical;startArrow=none;endFill=0;rounded=0;comic=0;backgroundOutline=0;dashed=1;shadow=1;labelBackgroundColor=none;flowAnimation=1;editable=1;movable=1;resizable=1;rotatable=1;deletable=1;locked=0;connectable=1;cloneable=1;labelBorderColor=none;html=1;fontColor=default;" parent="1" edge="1">
          <mxGeometry width="100" relative="1" as="geometry">
            <mxPoint x="288" y="229" as="sourcePoint" />
            <mxPoint x="348" y="229" as="targetPoint" />
          </mxGeometry>
        </mxCell>
        <mxCell id="2-zdTMDnQHhOAPcytkvD-137" value="" style="edgeStyle=orthogonalEdgeStyle;endArrow=open;elbow=vertical;startArrow=none;endFill=0;rounded=0;comic=0;backgroundOutline=0;dashed=1;shadow=1;labelBackgroundColor=none;flowAnimation=1;editable=1;movable=1;resizable=1;rotatable=1;deletable=1;locked=0;connectable=1;cloneable=1;labelBorderColor=none;html=1;fontColor=default;" parent="1" edge="1">
          <mxGeometry width="100" relative="1" as="geometry">
            <mxPoint x="288" y="488" as="sourcePoint" />
            <mxPoint x="348" y="488" as="targetPoint" />
          </mxGeometry>
        </mxCell>
        <mxCell id="2-zdTMDnQHhOAPcytkvD-139" value="" style="edgeStyle=orthogonalEdgeStyle;endArrow=open;elbow=vertical;startArrow=none;endFill=0;rounded=0;comic=0;backgroundOutline=0;dashed=1;shadow=0;labelBackgroundColor=none;flowAnimation=1;editable=1;movable=1;resizable=1;rotatable=1;deletable=1;locked=0;connectable=1;cloneable=1;labelBorderColor=none;html=1;fontColor=default;" parent="1" edge="1">
          <mxGeometry width="100" relative="1" as="geometry">
            <mxPoint x="131" y="490" as="sourcePoint" />
            <mxPoint x="221" y="490" as="targetPoint" />
          </mxGeometry>
        </mxCell>
        <mxCell id="2-zdTMDnQHhOAPcytkvD-159" value="" style="points=[[0,0,0],[0.25,0,0],[0.5,0,0],[0.75,0,0],[1,0,0],[0,1,0],[0.25,1,0],[0.5,1,0],[0.75,1,0],[1,1,0],[0,0.25,0],[0,0.5,0],[0,0.75,0],[1,0.25,0],[1,0.5,0],[1,0.75,0]];outlineConnect=0;dashed=1;verticalLabelPosition=bottom;verticalAlign=top;align=center;fontSize=12;fontStyle=0;aspect=fixed;shape=mxgraph.aws4.resourceIcon;resIcon=mxgraph.aws4.lambda;comic=0;backgroundOutline=0;shadow=1;labelBackgroundColor=none;editable=1;movable=1;resizable=1;rotatable=1;deletable=1;locked=0;connectable=1;cloneable=1;labelBorderColor=none;html=1;fillColor=#fa6800;fontColor=#000000;strokeColor=#C73500;" parent="1" vertex="1">
          <mxGeometry x="477" y="200" width="51" height="51" as="geometry" />
        </mxCell>
        <mxCell id="2-zdTMDnQHhOAPcytkvD-160" value="" style="outlineConnect=0;dashed=0;verticalLabelPosition=bottom;verticalAlign=top;align=center;html=1;shape=mxgraph.aws3.polly;fillColor=#2E73B8;gradientColor=none;" parent="1" vertex="1">
          <mxGeometry x="729" y="192" width="61" height="58" as="geometry" />
        </mxCell>
        <mxCell id="2-zdTMDnQHhOAPcytkvD-164" value="" style="endArrow=classic;html=1;rounded=0;flowAnimation=1;" parent="1" edge="1">
          <mxGeometry width="50" height="50" relative="1" as="geometry">
            <mxPoint x="665" y="224" as="sourcePoint" />
            <mxPoint x="722" y="224" as="targetPoint" />
          </mxGeometry>
        </mxCell>
        <mxCell id="2-zdTMDnQHhOAPcytkvD-173" value="" style="edgeStyle=orthogonalEdgeStyle;endArrow=open;elbow=vertical;startArrow=none;endFill=0;rounded=0;comic=0;backgroundOutline=0;dashed=1;shadow=1;labelBackgroundColor=none;flowAnimation=1;editable=1;movable=1;resizable=1;rotatable=1;deletable=1;locked=0;connectable=1;cloneable=1;labelBorderColor=none;html=1;fontColor=default;" parent="1" edge="1">
          <mxGeometry width="100" relative="1" as="geometry">
            <mxPoint x="662" y="485" as="sourcePoint" />
            <mxPoint x="722" y="485" as="targetPoint" />
          </mxGeometry>
        </mxCell>
        <mxCell id="dz_OCOcloMZIDA0Z-L-I-3" value="" style="edgeStyle=none;rounded=0;orthogonalLoop=1;jettySize=auto;html=1;dashed=1;flowAnimation=1;" parent="1" edge="1">
          <mxGeometry relative="1" as="geometry">
            <mxPoint x="100" y="153" as="sourcePoint" />
            <mxPoint x="100" y="198" as="targetPoint" />
          </mxGeometry>
        </mxCell>
        <mxCell id="dz_OCOcloMZIDA0Z-L-I-11" value="" style="edgeStyle=none;rounded=0;orthogonalLoop=1;jettySize=auto;html=1;shape=wire;flowAnimation=1;" parent="1" edge="1">
          <mxGeometry relative="1" as="geometry">
            <mxPoint x="100" y="417" as="sourcePoint" />
            <mxPoint x="100" y="470" as="targetPoint" />
          </mxGeometry>
        </mxCell>
        <mxCell id="dz_OCOcloMZIDA0Z-L-I-17" value="" style="edgeStyle=none;rounded=0;orthogonalLoop=1;jettySize=auto;html=1;dashed=1;flowAnimation=1;" parent="1" edge="1">
          <mxGeometry relative="1" as="geometry">
            <mxPoint x="494" y="255" as="sourcePoint" />
            <mxPoint x="494" y="300" as="targetPoint" />
          </mxGeometry>
        </mxCell>
        <mxCell id="dz_OCOcloMZIDA0Z-L-I-23" value="" style="edgeStyle=orthogonalEdgeStyle;endArrow=open;elbow=vertical;startArrow=none;endFill=0;rounded=0;comic=0;backgroundOutline=0;dashed=1;shadow=1;labelBackgroundColor=none;flowAnimation=1;editable=1;movable=1;resizable=1;rotatable=1;deletable=1;locked=0;connectable=1;cloneable=1;labelBorderColor=none;html=1;fontColor=default;" parent="1" edge="1">
          <mxGeometry width="100" relative="1" as="geometry">
            <mxPoint x="538" y="228" as="sourcePoint" />
            <mxPoint x="598" y="228" as="targetPoint" />
            <Array as="points">
              <mxPoint x="568" y="228" />
              <mxPoint x="568" y="228" />
            </Array>
          </mxGeometry>
        </mxCell>
        <mxCell id="dz_OCOcloMZIDA0Z-L-I-25" value="Polly&lt;div&gt;&lt;br&gt;&lt;/div&gt;" style="text;strokeColor=none;align=center;fillColor=none;html=1;verticalAlign=middle;whiteSpace=wrap;rounded=0;fontFamily=Helvetica;fontSize=12;fontColor=default;" parent="1" vertex="1">
          <mxGeometry x="735" y="177" width="60" height="30" as="geometry" />
        </mxCell>
        <mxCell id="A-gvF0QpMZuj0pTLAi-S-2" value="" style="edgeStyle=orthogonalEdgeStyle;endArrow=open;elbow=vertical;startArrow=none;endFill=0;rounded=0;comic=0;backgroundOutline=0;dashed=1;shadow=1;labelBackgroundColor=none;flowAnimation=1;editable=1;movable=1;resizable=1;rotatable=1;deletable=1;locked=0;connectable=1;cloneable=1;labelBorderColor=none;html=1;fontColor=default;" edge="1" parent="1">
          <mxGeometry width="100" relative="1" as="geometry">
            <mxPoint x="538" y="487" as="sourcePoint" />
            <mxPoint x="598" y="487" as="targetPoint" />
          </mxGeometry>
        </mxCell>
        <mxCell id="A-gvF0QpMZuj0pTLAi-S-3" value="" style="edgeStyle=none;rounded=0;orthogonalLoop=1;jettySize=auto;html=1;dashed=1;flowAnimation=1;" edge="1" parent="1">
          <mxGeometry relative="1" as="geometry">
            <mxPoint x="495" y="514" as="sourcePoint" />
            <mxPoint x="495" y="559" as="targetPoint" />
          </mxGeometry>
        </mxCell>
        <mxCell id="A-gvF0QpMZuj0pTLAi-S-5" value="" style="sketch=0;points=[[0,0,0],[0.25,0,0],[0.5,0,0],[0.75,0,0],[1,0,0],[0,1,0],[0.25,1,0],[0.5,1,0],[0.75,1,0],[1,1,0],[0,0.25,0],[0,0.5,0],[0,0.75,0],[1,0.25,0],[1,0.5,0],[1,0.75,0]];outlineConnect=0;fontColor=#232F3E;fillColor=#C925D1;strokeColor=#ffffff;dashed=0;verticalLabelPosition=bottom;verticalAlign=top;align=center;html=1;fontSize=12;fontStyle=0;aspect=fixed;shape=mxgraph.aws4.resourceIcon;resIcon=mxgraph.aws4.dynamodb;" vertex="1" parent="1">
          <mxGeometry x="480" y="301" width="51" height="51" as="geometry" />
        </mxCell>
        <mxCell id="A-gvF0QpMZuj0pTLAi-S-7" value="" style="sketch=0;points=[[0,0,0],[0.25,0,0],[0.5,0,0],[0.75,0,0],[1,0,0],[0,1,0],[0.25,1,0],[0.5,1,0],[0.75,1,0],[1,1,0],[0,0.25,0],[0,0.5,0],[0,0.75,0],[1,0.25,0],[1,0.5,0],[1,0.75,0]];outlineConnect=0;fontColor=#232F3E;fillColor=#C925D1;strokeColor=#ffffff;dashed=0;verticalLabelPosition=bottom;verticalAlign=top;align=center;html=1;fontSize=12;fontStyle=0;aspect=fixed;shape=mxgraph.aws4.resourceIcon;resIcon=mxgraph.aws4.dynamodb;" vertex="1" parent="1">
          <mxGeometry x="482" y="561" width="51" height="51" as="geometry" />
        </mxCell>
        <mxCell id="2-zdTMDnQHhOAPcytkvD-178" value="" style="endArrow=classic;html=1;rounded=0;endSize=8;startSize=8;elbow=vertical;flowAnimation=1;exitX=0.397;exitY=0.047;exitDx=0;exitDy=0;exitPerimeter=0;" parent="1" edge="1" source="dz_OCOcloMZIDA0Z-L-I-25">
          <mxGeometry width="50" height="50" relative="1" as="geometry">
            <mxPoint x="765" y="177" as="sourcePoint" />
            <mxPoint x="86" y="149" as="targetPoint" />
            <Array as="points">
              <mxPoint x="760" y="153" />
            </Array>
          </mxGeometry>
        </mxCell>
        <mxCell id="A-gvF0QpMZuj0pTLAi-S-13" value="" style="edgeStyle=orthogonalEdgeStyle;rounded=0;orthogonalLoop=1;jettySize=auto;html=1;dashed=1;flowAnimation=1;" edge="1" parent="1">
          <mxGeometry relative="1" as="geometry">
            <mxPoint x="519" y="554" as="sourcePoint" />
            <mxPoint x="518.5" y="513" as="targetPoint" />
          </mxGeometry>
        </mxCell>
        <mxCell id="A-gvF0QpMZuj0pTLAi-S-9" value="" style="outlineConnect=0;dashed=0;verticalLabelPosition=bottom;verticalAlign=top;align=center;html=1;shape=mxgraph.aws3.polly;fillColor=#2E73B8;gradientColor=none;" vertex="1" parent="1">
          <mxGeometry x="732" y="458" width="61" height="58" as="geometry" />
        </mxCell>
        <mxCell id="A-gvF0QpMZuj0pTLAi-S-14" value="" style="edgeStyle=orthogonalEdgeStyle;rounded=0;orthogonalLoop=1;jettySize=auto;html=1;dashed=1;flowAnimation=1;" edge="1" parent="1">
          <mxGeometry relative="1" as="geometry">
            <mxPoint x="519" y="295" as="sourcePoint" />
            <mxPoint x="518.5" y="254" as="targetPoint" />
          </mxGeometry>
        </mxCell>
        <mxCell id="A-gvF0QpMZuj0pTLAi-S-16" value="" style="edgeStyle=orthogonalEdgeStyle;endArrow=open;elbow=vertical;startArrow=none;endFill=0;rounded=0;comic=0;backgroundOutline=0;dashed=1;shadow=0;labelBackgroundColor=none;flowAnimation=1;editable=1;movable=1;resizable=1;rotatable=1;deletable=1;locked=0;connectable=1;cloneable=1;labelBorderColor=none;html=1;fontColor=default;" edge="1" parent="1">
          <mxGeometry width="100" relative="1" as="geometry">
            <mxPoint x="131" y="227" as="sourcePoint" />
            <mxPoint x="221" y="227" as="targetPoint" />
          </mxGeometry>
        </mxCell>
        <mxCell id="A-gvF0QpMZuj0pTLAi-S-18" value="Region" style="points=[[0,0],[0.25,0],[0.5,0],[0.75,0],[1,0],[1,0.25],[1,0.5],[1,0.75],[1,1],[0.75,1],[0.5,1],[0.25,1],[0,1],[0,0.75],[0,0.5],[0,0.25]];outlineConnect=0;gradientColor=none;html=1;whiteSpace=wrap;fontSize=12;fontStyle=0;container=1;pointerEvents=0;collapsible=0;recursiveResize=0;shape=mxgraph.aws4.group;grIcon=mxgraph.aws4.group_region;strokeColor=#00A4A6;fillColor=none;verticalAlign=top;align=left;spacingLeft=30;fontColor=#147EBA;dashed=1;" vertex="1" parent="1">
          <mxGeometry x="166" y="125" width="930" height="528" as="geometry" />
        </mxCell>
      </root>
    </mxGraphModel>
  </diagram>
</mxfile>
